<svg width="153" height="38" viewBox="0 0 153 38" fill="none" xmlns="http://www.w3.org/2000/svg">
<path d="M8.7102 0C10.3754 0.0505813 13.9788 0.0343734 15.6966 0.0505813C14.9926 3.43287 14.398 7.90882 13.8391 11.4062C14.2198 10.8275 14.6475 10.2221 15.1144 9.70459C18.6919 5.74066 25.3306 6.31383 27.4756 11.4322C27.6886 11.9404 27.885 12.4586 28.0797 12.9775C28.2457 11.3364 28.6863 9.08998 28.9627 7.42002C31.2725 7.37968 33.7123 7.42315 36.0326 7.42922C35.5978 10.1564 33.1267 20.9831 34.2934 22.9009C34.6918 23.5555 35.4472 23.8749 36.1728 24.0011C37.2533 24.1887 38.3253 23.9635 39.2112 23.3102C39.9901 22.7357 40.5428 21.8629 40.8809 20.9676C41.8859 18.3075 42.7303 10.7854 43.2879 7.42057L55.7537 7.42572C56.2123 12.8415 56.6995 18.255 57.2151 23.6658C59.627 18.5646 61.8821 12.6616 64.2507 7.4167C66.7824 7.40547 69.3141 7.41228 71.8456 7.43733C71.3241 8.6474 70.3667 10.3802 69.7428 11.5932C74.0758 7.17413 81.306 4.96084 86.5352 9.70791C87.5044 10.5874 88.0682 11.9934 88.4386 13.2302C91.2706 7.50289 98.1507 5.8543 103.984 7.96114C105.93 8.66434 107.083 10.0901 107.859 11.9753C111.102 5.97291 123.246 5.19161 126.559 10.995L126.073 7.42204C128.201 7.38889 131.131 7.32627 133.204 7.47859C134.025 8.65182 134.812 9.26698 135.932 10.0855C134.855 9.65541 133.685 9.27341 132.585 8.89198C133.635 11.4175 133.933 12.1315 136.235 13.7162L132.907 12.5483C134.399 17.475 137.032 16.7616 140.2 19.245C141.339 20.139 143.879 22.8927 145.228 24.1119C140.375 22.4733 137.723 22.0793 135.402 17.0269L133.135 16.3143C134.668 20.0071 135.527 19.3969 138.179 21.729C139.888 23.2343 142.028 25.5826 143.673 27.2483C141.93 26.5101 138.975 25.5697 137.108 24.9199C138.58 26.8982 140.39 28.6627 142.236 30.2916C140.406 29.537 137.709 28.6665 135.787 27.9895C137.119 30.1543 138.634 31.4158 140.388 33.227L134.622 31.232C135.348 32.9624 136.929 34.6529 138.162 36.1229L133.082 34.3183C133.253 35.3261 133.664 36.8533 132.833 37.6124C132.12 37.698 130.781 37.0368 130.534 37.1329C127.681 38.2435 125.894 38.2831 122.845 37.2753L123.773 35.2235L125.203 32.2004C126.688 32.4877 127.982 32.8366 129.198 31.7473C129.334 31.4582 130.068 29.8943 130.025 29.6799C129.006 24.5797 128.1 19.3358 127.215 14.2201L120.746 14.3837C119.648 10.2354 114.524 12.2295 114.351 13.9833C114.028 17.2422 128.68 14.9874 126.073 23.4542C123.589 31.5141 109.739 32.2382 105.878 25.9119C105.735 27.1091 105.477 28.4516 105.27 29.6554C103.094 29.6832 100.835 29.6486 98.6537 29.6434L99.2378 26.2814C96.2234 29.8094 91.851 31.5482 87.4307 28.7089C86.5757 28.1595 86.1225 27.1658 85.7392 26.2466C80.1065 31.67 68.0232 32.3439 66.5685 22.5162C66.2921 20.6488 66.6888 18.6289 67.0746 16.7935C64.4346 22.2204 61.3697 28.5641 58.2526 33.7213C55.7311 37.8934 49.9723 38.7224 45.4345 37.2801C46.1706 35.5764 47.0121 33.8634 47.8117 32.1842C50.3836 32.7163 51.1136 32.754 52.6118 30.5264C51.8396 24.7098 50.4578 18.4311 49.5395 12.5638C48.4657 17.209 47.4393 24.7965 46.6244 29.6512C44.4498 29.695 42.1046 29.6493 39.9173 29.6423L40.6996 25.057C38.111 29.1704 33.411 31.7282 28.708 28.6409C27.0569 27.557 26.6212 25.4008 26.4139 23.5439C24.1313 27.5484 19.8995 31.3418 14.6493 29.5548C12.8432 28.94 12.0251 27.3196 11.3393 25.6373C11.1245 26.9728 10.9297 28.3112 10.7554 29.6526C8.50693 29.6911 6.17959 29.6488 3.92503 29.6381C2.74008 28.4024 1.42393 27.2995 0 26.3492C1.9135 27.1411 4.04773 27.7933 6.02757 28.5768C4.47171 25.9397 3.50105 25.0684 1.15731 23.1192L5.98501 24.8822C5.04549 22.5998 4.33868 21.522 2.35184 20.0681C3.6245 20.5149 4.9493 20.9381 6.23246 21.3663C5.53523 19.1836 5.22753 18.609 3.75053 16.9307L6.58273 17.8279C6.06939 15.7566 5.46338 15.1996 5.15678 14.054C5.72963 13.9389 6.30746 14.2356 6.93467 14.4371C6.80071 13.4247 5.97339 10.8036 6.05926 10.5141C6.55786 10.6662 6.802 10.7375 7.31663 10.8111C7.54455 9.63055 6.49632 7.87807 6.69624 7.10599C7.22376 7.26015 7.51894 7.46109 7.92744 7.28814C7.93094 6.23279 7.38941 5.11646 7.26964 3.9099C7.6376 3.81928 7.92449 3.9261 8.30037 4.00917C8.86383 3.27668 7.80141 1.37889 7.78409 0.275647C8.22114 0.468116 8.27477 0.517847 8.73964 0.519688L8.7102 0ZM16.7557 24.3173C17.3357 24.0399 17.9018 23.7427 18.3893 23.2903C20.7124 21.1339 22.419 14.3533 18.5625 12.846C18.124 12.6745 16.8747 12.7384 16.3513 12.7756C11.6708 14.9145 9.85623 25.0577 16.7557 24.3173ZM81.3171 22.667L85.063 22.7499L85.7061 22.7453C86.1409 22.2976 86.6237 20.9208 86.9332 20.2456C82.5166 20.2486 77.7407 20.1668 73.3526 20.2727C72.9505 26.0539 78.4593 26.2341 81.3171 22.667ZM106.426 22.7832L112.132 22.6481C112.889 25.5368 115.261 25.5806 117.698 24.6103C119.512 23.1183 119.53 22.1244 117.092 21.4505C113.326 20.4086 109.624 20.7807 107.461 16.9145C107.087 18.8597 106.802 20.8816 106.426 22.7832ZM133.327 19.9178C133.801 21.0733 134.477 22.532 135.649 23.133L135.542 22.9547C134.383 20.9908 135.168 20.6162 133.327 19.9178ZM78.6638 12.2409C76.2021 12.6441 74.9584 13.7625 74.1679 16.1093L77.9986 16.106C78.8738 16.1183 81.5253 16.2417 82.1794 15.9767C82.6124 15.5453 82.4889 15.7617 82.6271 15.134C82.1499 13.2911 80.5156 12.2518 78.6638 12.2409ZM99.6911 19.7778C97.8043 20.3114 89.3322 21.2492 93.2993 25.0612C96.9549 26.0878 99.9509 23.7255 99.833 19.9345L99.6911 19.7778ZM97.1797 12.2441C95.7462 12.7124 95.2947 13.0836 94.5043 14.432C92.5733 14.3719 90.5667 14.2804 88.6413 14.2584C88.75 15.9776 88.6578 16.9333 88.5233 18.6524C89.3783 18.0496 89.8187 17.8579 90.7823 17.4188C92.6304 16.8407 94.2279 16.6007 96.1 16.4222C97.7767 16.2623 101.351 15.9485 100.857 13.5162C100.581 12.156 98.136 12.1835 97.1797 12.2441Z" fill="white"/>
<path d="M133.327 19.9177C135.168 20.6161 134.383 20.9908 135.542 22.9547L135.649 23.133C134.477 22.532 133.801 21.0733 133.327 19.9177Z" fill="black" fill-opacity="0.0313725"/>
<path d="M138.289 7.36548C145.165 9.12772 145.106 10.5218 149.934 15.0007C144.691 13.651 141.655 11.697 138.289 7.36548Z" fill="white"/>
<path d="M137.259 10.6448C143.442 12.1599 143.947 13.849 148.207 17.9314C147.597 17.8378 146.582 17.421 145.937 17.2475C141.867 16.1526 139.879 13.8021 137.259 10.6448Z" fill="white"/>
<path d="M136.42 13.8232C142.411 15.8406 142.245 16.5824 146.707 21.0387C142.571 19.9504 138.224 18.0292 136.42 13.8232Z" fill="white"/>
<path d="M142.694 7.42074C144.152 7.40324 145.451 7.40287 146.905 7.46734C148.357 8.82935 149.86 10.4564 151.353 11.8759C146.916 10.4544 146.153 10.594 142.694 7.42074Z" fill="white"/>
<path d="M149.016 7.4115L151.537 7.4546L152.904 8.75197C151.636 8.46133 150.245 7.87932 149.016 7.4115Z" fill="white"/>
</svg>
